<?xml version="1.0" encoding="utf-8"?>
<!-- Generator: Adobe Illustrator 26.0.3, SVG Export Plug-In . SVG Version: 6.00 Build 0)  -->
<svg version="1.1" id="Calque_1" xmlns="http://www.w3.org/2000/svg" xmlns:xlink="http://www.w3.org/1999/xlink" x="0px" y="0px"
	 viewBox="0 0 159 100" style="enable-background:new 0 0 159 100;" xml:space="preserve">
<style type="text/css">
	.st0{fill:#FFFFFF;}
</style>
<g>
	<path d="M91.2,43.7c0.3-0.4,0.7-0.7,1.1-0.9c0.4-0.2,0.9-0.3,1.4-0.3l19.3-0.9l5.5-8H136l1.2,5l-14.3,0.2l-7.4,8.4L93.9,47
		c-0.9,0-1.8-0.3-2.5-0.9c-0.2-0.1-0.3-0.3-0.5-0.5c-0.1-0.2-0.2-0.4-0.2-0.6c0-0.2,0-0.5,0.1-0.7C90.9,44.1,91.1,43.9,91.2,43.7z"
		/>
	<path d="M68.3,43.7c-0.3-0.4-0.7-0.7-1.1-0.9c-0.4-0.2-0.9-0.3-1.4-0.3l-19.3-0.9l-5.5-8H23.5l-1.2,5l14.3,0.2l7.4,8.4l21.6-0.3
		c0.9,0,1.8-0.3,2.5-0.9c0.2-0.1,0.3-0.3,0.5-0.5c0.1-0.2,0.2-0.4,0.2-0.6c0-0.2,0-0.4-0.1-0.7C68.6,44.1,68.4,43.9,68.3,43.7z"/>
	<path d="M137.9,31h-21.7l-5.7,7.8H86.3v0.9h24.6l5.7-7.8h20.9l8.6,8.5l-0.5,1.3H123l-6.7,8.7H93.9v-2.2H65.3v2.2H42.8l-6.7-8.7
		H13.5l-0.5-1.3l8.6-8.5h20.9l5.7,7.8h24.1v5h14.1v-8.7c0-0.4-0.2-0.8-0.5-1.1c-0.3-0.3-0.7-0.5-1.1-0.5H73.9
		c-0.4,0-0.8,0.2-1.1,0.5c-0.3,0.3-0.5,0.7-0.5,1.1v2.9H48.7L42.9,31H21.2L12,40.1L21.8,69l0.4-0.1h114.5l0.4,0.1l9.8-28.9L137.9,31
		z"/>
	<path class="st0" d="M80.2,56.6H79v5.9h1.3V56.6z"/>
	<path class="st0" d="M77.9,58.4c0-1.1-0.8-1.7-2.1-1.7h-10v1.2h10.2c0.3,0,0.7,0.1,0.7,0.6c0,0.1,0,0.2,0,0.3
		c0,0.1-0.1,0.2-0.2,0.2c-0.1,0.1-0.1,0.1-0.2,0.1c-0.1,0-0.2,0-0.3,0H65.8v3.5H67v-2.4h8.5l1.1,2.4h1.4l-1.2-2.5
		c0.3-0.1,0.6-0.4,0.8-0.6C77.8,59.1,77.9,58.8,77.9,58.4"/>
	<path class="st0" d="M84.3,57.8h9.1v-1.2h-9.1c-0.8,0-1.6,0.3-2.1,0.9c-0.6,0.6-0.9,1.3-0.9,2.1c0,0.8,0.3,1.5,0.9,2.1
		c0.6,0.6,1.3,0.9,2.1,0.9h9.1v-3.5h-7.2v1.1h5.9v1.2h-7.9c-0.2,0-0.5,0-0.7-0.1c-0.2-0.1-0.4-0.2-0.6-0.4c-0.2-0.2-0.3-0.4-0.4-0.6
		c-0.1-0.2-0.1-0.5-0.1-0.7c0-0.2,0-0.5,0.1-0.7c0.1-0.2,0.2-0.4,0.4-0.6c0.2-0.2,0.4-0.3,0.6-0.4C83.9,57.9,84.1,57.9,84.3,57.8"/>
	<path class="st0" d="M82.3,38.5h-6.2v0.3h6.2V38.5z"/>
	<path class="st0" d="M78,39.2c-1.2,0-1.9,0.2-1.9,0.6v2.7h1.3v-2.8c0-0.1,0.1-0.2,0.6-0.2c0.5,0,0.7,0.1,0.7,0.2v2.8h3.6v-0.3h-2.5
		v-2.3l2.5-0.3v-0.4l-2.7,0.3C79.1,39.2,78.5,39.1,78,39.2"/>
	<path class="st0" d="M77.3,37.4V35h-1.3v2.5c0,0.5,1.3,0.8,3.1,0.8s3.1-0.3,3.1-0.8V35h-3.6v1.9h1.2v-1.6h1.3v2.1
		c0,0.3-0.7,0.5-1.9,0.5S77.3,37.7,77.3,37.4"/>
</g>
</svg>
